<svg xmlns="http://www.w3.org/2000/svg" xmlns:xlink="http://www.w3.org/1999/xlink" width="52" zoomAndPan="magnify" viewBox="0 0 39 30.000001" height="40" preserveAspectRatio="xMidYMid meet" version="1.0"><defs><clipPath id="835d340146"><path d="M 0.628906 0 L 38.371094 0 L 38.371094 29.03125 L 0.628906 29.03125 Z M 0.628906 0 " clip-rule="nonzero"/></clipPath><clipPath id="284f98b170"><path d="M 1.527344 1.707031 L 18.914062 1.707031 L 18.914062 18.433594 L 1.527344 18.433594 Z M 1.527344 1.707031 " clip-rule="nonzero"/></clipPath><clipPath id="bcdbb56967"><path d="M 3.054688 1.707031 L 17.386719 1.707031 C 18.230469 1.707031 18.914062 2.390625 18.914062 3.234375 L 18.914062 16.90625 C 18.914062 17.75 18.230469 18.433594 17.386719 18.433594 L 3.054688 18.433594 C 2.210938 18.433594 1.527344 17.75 1.527344 16.90625 L 1.527344 3.234375 C 1.527344 2.390625 2.210938 1.707031 3.054688 1.707031 Z M 3.054688 1.707031 " clip-rule="nonzero"/></clipPath><clipPath id="97fde558c1"><path d="M 19.828125 1.707031 L 28.105469 1.707031 L 28.105469 9.65625 L 19.828125 9.65625 Z M 19.828125 1.707031 " clip-rule="nonzero"/></clipPath><clipPath id="b85f635e09"><path d="M 20.589844 1.707031 L 27.34375 1.707031 C 27.765625 1.707031 28.105469 2.050781 28.105469 2.472656 L 28.105469 8.894531 C 28.105469 9.316406 27.765625 9.65625 27.34375 9.65625 L 20.589844 9.65625 C 20.167969 9.65625 19.828125 9.316406 19.828125 8.894531 L 19.828125 2.472656 C 19.828125 2.050781 20.167969 1.707031 20.589844 1.707031 Z M 20.589844 1.707031 " clip-rule="nonzero"/></clipPath><clipPath id="793cf1acab"><path d="M 19.828125 10.484375 L 28.105469 10.484375 L 28.105469 18.433594 L 19.828125 18.433594 Z M 19.828125 10.484375 " clip-rule="nonzero"/></clipPath><clipPath id="5ed1cb483c"><path d="M 20.589844 10.484375 L 27.34375 10.484375 C 27.765625 10.484375 28.105469 10.828125 28.105469 11.25 L 28.105469 17.667969 C 28.105469 18.089844 27.765625 18.433594 27.34375 18.433594 L 20.589844 18.433594 C 20.167969 18.433594 19.828125 18.089844 19.828125 17.667969 L 19.828125 11.25 C 19.828125 10.828125 20.167969 10.484375 20.589844 10.484375 Z M 20.589844 10.484375 " clip-rule="nonzero"/></clipPath><clipPath id="bba9c46d7c"><path d="M 19.914062 19.375 L 28.195312 19.375 L 28.195312 27.324219 L 19.914062 27.324219 Z M 19.914062 19.375 " clip-rule="nonzero"/></clipPath><clipPath id="733e22c864"><path d="M 20.679688 19.375 L 27.429688 19.375 C 27.851562 19.375 28.195312 19.71875 28.195312 20.140625 L 28.195312 26.558594 C 28.195312 26.980469 27.851562 27.324219 27.429688 27.324219 L 20.679688 27.324219 C 20.257812 27.324219 19.914062 26.980469 19.914062 26.558594 L 19.914062 20.140625 C 19.914062 19.71875 20.257812 19.375 20.679688 19.375 Z M 20.679688 19.375 " clip-rule="nonzero"/></clipPath><clipPath id="ec7000846c"><path d="M 1.527344 19.375 L 9.804688 19.375 L 9.804688 27.324219 L 1.527344 27.324219 Z M 1.527344 19.375 " clip-rule="nonzero"/></clipPath><clipPath id="e59a412b67"><path d="M 2.289062 19.375 L 9.042969 19.375 C 9.464844 19.375 9.804688 19.71875 9.804688 20.140625 L 9.804688 26.558594 C 9.804688 26.980469 9.464844 27.324219 9.042969 27.324219 L 2.289062 27.324219 C 1.867188 27.324219 1.527344 26.980469 1.527344 26.558594 L 1.527344 20.140625 C 1.527344 19.71875 1.867188 19.375 2.289062 19.375 Z M 2.289062 19.375 " clip-rule="nonzero"/></clipPath><clipPath id="613814fcc5"><path d="M 29.195312 1.707031 L 37.472656 1.707031 L 37.472656 9.65625 L 29.195312 9.65625 Z M 29.195312 1.707031 " clip-rule="nonzero"/></clipPath><clipPath id="5f7e894e70"><path d="M 29.957031 1.707031 L 36.710938 1.707031 C 37.132812 1.707031 37.472656 2.050781 37.472656 2.472656 L 37.472656 8.894531 C 37.472656 9.316406 37.132812 9.65625 36.710938 9.65625 L 29.957031 9.65625 C 29.535156 9.65625 29.195312 9.316406 29.195312 8.894531 L 29.195312 2.472656 C 29.195312 2.050781 29.535156 1.707031 29.957031 1.707031 Z M 29.957031 1.707031 " clip-rule="nonzero"/></clipPath><clipPath id="dead83ebc6"><path d="M 29.195312 10.484375 L 37.472656 10.484375 L 37.472656 18.433594 L 29.195312 18.433594 Z M 29.195312 10.484375 " clip-rule="nonzero"/></clipPath><clipPath id="16b8b6f0fe"><path d="M 29.957031 10.484375 L 36.710938 10.484375 C 37.132812 10.484375 37.472656 10.828125 37.472656 11.25 L 37.472656 17.667969 C 37.472656 18.089844 37.132812 18.433594 36.710938 18.433594 L 29.957031 18.433594 C 29.535156 18.433594 29.195312 18.089844 29.195312 17.667969 L 29.195312 11.25 C 29.195312 10.828125 29.535156 10.484375 29.957031 10.484375 Z M 29.957031 10.484375 " clip-rule="nonzero"/></clipPath><clipPath id="a80ec94dd4"><path d="M 29.195312 19.375 L 37.472656 19.375 L 37.472656 27.324219 L 29.195312 27.324219 Z M 29.195312 19.375 " clip-rule="nonzero"/></clipPath><clipPath id="527c9119a6"><path d="M 29.957031 19.375 L 36.710938 19.375 C 37.132812 19.375 37.472656 19.71875 37.472656 20.140625 L 37.472656 26.558594 C 37.472656 26.980469 37.132812 27.324219 36.710938 27.324219 L 29.957031 27.324219 C 29.535156 27.324219 29.195312 26.980469 29.195312 26.558594 L 29.195312 20.140625 C 29.195312 19.71875 29.535156 19.375 29.957031 19.375 Z M 29.957031 19.375 " clip-rule="nonzero"/></clipPath><clipPath id="bb50f7669f"><path d="M 10.804688 19.375 L 19.085938 19.375 L 19.085938 27.324219 L 10.804688 27.324219 Z M 10.804688 19.375 " clip-rule="nonzero"/></clipPath><clipPath id="75508fcb2b"><path d="M 11.570312 19.375 L 18.320312 19.375 C 18.742188 19.375 19.085938 19.71875 19.085938 20.140625 L 19.085938 26.558594 C 19.085938 26.980469 18.742188 27.324219 18.320312 27.324219 L 11.570312 27.324219 C 11.148438 27.324219 10.804688 26.980469 10.804688 26.558594 L 10.804688 20.140625 C 10.804688 19.71875 11.148438 19.375 11.570312 19.375 Z M 11.570312 19.375 " clip-rule="nonzero"/></clipPath></defs><g clip-path="url(#835d340146)"><path fill="#ffffff" d="M 0.628906 0 L 38.371094 0 L 38.371094 29.03125 L 0.628906 29.03125 Z M 0.628906 0 " fill-opacity="1" fill-rule="nonzero"/><path fill="#ffffff" d="M 0.628906 0 L 38.371094 0 L 38.371094 29.03125 L 0.628906 29.03125 Z M 0.628906 0 " fill-opacity="1" fill-rule="nonzero"/></g><g clip-path="url(#284f98b170)"><g clip-path="url(#bcdbb56967)"><path fill="#004aad" d="M 1.527344 1.707031 L 18.914062 1.707031 L 18.914062 18.433594 L 1.527344 18.433594 Z M 1.527344 1.707031 " fill-opacity="1" fill-rule="nonzero"/></g></g><g clip-path="url(#97fde558c1)"><g clip-path="url(#b85f635e09)"><path fill="#00bf63" d="M 19.828125 1.707031 L 28.105469 1.707031 L 28.105469 9.65625 L 19.828125 9.65625 Z M 19.828125 1.707031 " fill-opacity="1" fill-rule="nonzero"/></g></g><g clip-path="url(#793cf1acab)"><g clip-path="url(#5ed1cb483c)"><path fill="#ff3131" d="M 19.828125 10.484375 L 28.105469 10.484375 L 28.105469 18.433594 L 19.828125 18.433594 Z M 19.828125 10.484375 " fill-opacity="1" fill-rule="nonzero"/></g></g><g clip-path="url(#bba9c46d7c)"><g clip-path="url(#733e22c864)"><path fill="#ffbd59" d="M 19.914062 19.375 L 28.195312 19.375 L 28.195312 27.324219 L 19.914062 27.324219 Z M 19.914062 19.375 " fill-opacity="1" fill-rule="nonzero"/></g></g><g clip-path="url(#ec7000846c)"><g clip-path="url(#e59a412b67)"><path fill="#00bf63" d="M 1.527344 19.375 L 9.804688 19.375 L 9.804688 27.324219 L 1.527344 27.324219 Z M 1.527344 19.375 " fill-opacity="1" fill-rule="nonzero"/></g></g><g clip-path="url(#613814fcc5)"><g clip-path="url(#5f7e894e70)"><path fill="#737373" d="M 29.195312 1.707031 L 37.472656 1.707031 L 37.472656 9.65625 L 29.195312 9.65625 Z M 29.195312 1.707031 " fill-opacity="1" fill-rule="nonzero"/></g></g><g clip-path="url(#dead83ebc6)"><g clip-path="url(#16b8b6f0fe)"><path fill="#ffbd59" d="M 29.195312 10.484375 L 37.472656 10.484375 L 37.472656 18.433594 L 29.195312 18.433594 Z M 29.195312 10.484375 " fill-opacity="1" fill-rule="nonzero"/></g></g><g clip-path="url(#a80ec94dd4)"><g clip-path="url(#527c9119a6)"><path fill="#737373" d="M 29.195312 19.375 L 37.472656 19.375 L 37.472656 27.324219 L 29.195312 27.324219 Z M 29.195312 19.375 " fill-opacity="1" fill-rule="nonzero"/></g></g><g clip-path="url(#bb50f7669f)"><g clip-path="url(#75508fcb2b)"><path fill="#ff3131" d="M 10.804688 19.375 L 19.085938 19.375 L 19.085938 27.324219 L 10.804688 27.324219 Z M 10.804688 19.375 " fill-opacity="1" fill-rule="nonzero"/></g></g></svg>